:SAMPLES-PER-SECOND 30
:FULLY-SPECIFIED
:DEGREES
447
root  -2.98254 6.29996 16.2864 -42.3879 -6.71323 22.9514
RightUpLeg  -96.9586 -13.5916 25.5377
RightLeg  81.9283 14.7216 -20.2385
RightFoot  11.4089 4.67361 -21.4073
RightToes  5.82077e-011 -3.18055e-015 -2.98177e-016
Spine  30.0365 -2.29944 4.82911
Spine1  15.8361 -3.10691 -3.43159
HEad  -12.1889 11.6825 13.5058
LeftShoulder1  -3.88251e-019 9.70628e-020 -3.87848e-018
LeftArm  3.04798 48.1362 -31.0163
LeftForeArm  1.279 -17.6223 -1.77699
LeftHand  -2.31483 -6.92913 22.5702
RightShoulder  3.52179 8.42524 17.0063
RightArm  58.028 -63.3467 -41.0749
RightForeArm  -1.71977 32.1269 -17.3514
RightHand  -9.47211 8.54582 -68.9059
LeftUpLeg  -84.7272 9.36587 2.54048
LeftLeg  90.5861 -13.8919 7.01066
LeftFoot  34.1778 4.74163 -10.5793
LeftToes  5.91571e-011 -3.44359e-011 -3.93244e-011
448
root  -3.10982 6.3316 16.281 -42.9045 -6.89407 23.8039
RightUpLeg  -96.3513 -13.1118 24.9648
RightLeg  82.2334 14.8288 -20.086
RightFoot  11.4455 4.46969 -20.4717
RightToes  5.82077e-011 -3.18055e-015 -2.98177e-016
Spine  31.5932 -2.78223 5.34727
Spine1  14.0295 -3.13316 -4.41827
HEad  -12.5734 12.219 14.6549
LeftShoulder1  -3.88251e-019 9.70628e-020 -3.87848e-018
LeftArm  3.92394 46.0039 -30.3541
LeftForeArm  1.7365 -19.8466 -0.248075
LeftHand  -2.42851 -7.40319 22.7082
RightShoulder  3.25 8.20551 15.6271
RightArm  57.5327 -65.5526 -42.289
RightForeArm  0.99956 31.2738 -16.9637
RightHand  -9.88938 8.96078 -69.6604
LeftUpLeg  -83.5786 8.92043 3.21774
LeftLeg  90.4843 -13.862 6.72995
LeftFoot  34.2818 5.29676 -11.8079
LeftToes  5.91571e-011 -3.44359e-011 -3.93244e-011
449
root  -3.25228 6.36711 16.2856 -43.149 -7.04979 24.6451
RightUpLeg  -95.9051 -12.5763 24.7583
RightLeg  82.2875 14.8517 -19.7255
RightFoot  11.4906 4.66733 -21.3086
RightToes  5.82077e-011 -3.18055e-015 -2.98177e-016
Spine  32.9493 -3.02931 5.36783
Spine1  12.1762 -3.29662 -4.72515
HEad  -12.7709 12.9153 15.3362
LeftShoulder1  -3.88251e-019 9.70628e-020 -3.87848e-018
LeftArm  5.93813 45.0462 -29.4845
LeftForeArm  0.61736 -22.5944 1.7272
LeftHand  -2.8534 -8.71099 24.0875
RightShoulder  3.10375 8.11078 14.8285
RightArm  59.4594 -66.1754 -44.0279
RightForeArm  1.56351 31.0974 -16.8839
RightHand  -10.2222 9.19494 -70.5808
LeftUpLeg  -82.7145 8.53776 3.82011
LeftLeg  90.3039 -13.8415 6.70107
LeftFoot  34.3973 5.85312 -13.028
LeftToes  5.91571e-011 -3.44359e-011 -3.93244e-011
450
root  -3.40527 6.39871 16.3245 -42.854 -7.03975 25.7559
RightUpLeg  -96.0015 -11.709 24.3778
RightLeg  82.2651 14.848 -19.4552
RightFoot  11.512 5.00473 -22.7781
RightToes  5.82077e-011 -3.18055e-015 -2.98177e-016
Spine  33.3253 -2.86041 4.92003
Spine1  11.097 -3.31712 -4.69765
HEad  -13.4006 13.1723 15.7052
LeftShoulder1  -3.88251e-019 9.70628e-020 -3.87848e-018
LeftArm  7.62323 44.1784 -28.9011
LeftForeArm  -1.1413 -24.7817 3.40166
LeftHand  -3.28606 -10.0925 25.1583
RightShoulder  2.99841 8.09503 14.1649
RightArm  63.7035 -66.2596 -46.5356
RightForeArm  0.748798 31.1095 -16.8537
RightHand  -10.604 9.39211 -71.8543
LeftUpLeg  -82.4614 8.44329 3.87114
LeftLeg  90.1528 -13.8406 6.94127
LeftFoot  34.286 6.26084 -13.9812
LeftToes  5.91571e-011 -3.44359e-011 -3.93244e-011
451
root  -3.53409 6.42969 16.3693 -42.4281 -7.0748 26.7497
RightUpLeg  -96.1897 -10.8359 24.0631
RightLeg  82.247 14.8439 -19.3452
RightFoot  11.44 5.25116 -23.9284
RightToes  5.82077e-011 -3.18055e-015 -2.98177e-016
Spine  33.1628 -2.6276 4.6808
Spine1  10.7379 -3.21707 -4.71156
HEad  -14.3288 13.014 15.7667
LeftShoulder1  -3.88251e-019 9.70628e-020 -3.87848e-018
LeftArm  8.6646 43.0789 -28.5795
LeftForeArm  -1.47837 -25.9648 4.2928
LeftHand  -3.53427 -10.87 25.7025
RightShoulder  2.88406 8.05448 13.477
RightArm  66.3447 -66.779 -48.556
RightForeArm  0.782798 30.9476 -16.7591
RightHand  -11.0341 9.73113 -72.8057
LeftUpLeg  -82.4533 8.56313 3.75751
LeftLeg  90.0962 -13.8456 7.12652
LeftFoot  33.9934 6.47024 -14.5538
LeftToes  5.91571e-011 -3.44359e-011 -3.93244e-011
452
root  -3.6344 6.46615 16.3978 -42.3153 -7.32298 27.2032
RightUpLeg  -95.9663 -10.3632 24.2735
RightLeg  82.192 14.8259 -19.3524
RightFoot  11.2077 5.39836 -24.8042
RightToes  5.82077e-011 -3.18055e-015 -2.98177e-016
Spine  33.3608 -2.67818 5.05091
Spine1  10.3873 -3.11629 -4.9141
HEad  -14.9984 12.851 15.7092
LeftShoulder1  -3.88251e-019 9.70628e-020 -3.87848e-018
LeftArm  9.84498 42.2422 -28.1438
LeftForeArm  -0.706666 -26.7349 4.86327
LeftHand  -3.58491 -10.9772 25.8851
RightShoulder  2.78971 8.01171 12.9197
RightArm  66.7421 -67.605 -49.9468
RightForeArm  1.97913 30.6991 -16.6672
RightHand  -11.2775 9.95206 -73.2146
LeftUpLeg  -82.2287 8.72133 4.02786
LeftLeg  90.1509 -13.8449 7.01839
LeftFoot  33.6987 6.56752 -14.8793
LeftToes  5.91571e-011 -3.44359e-011 -3.93244e-011
453
root  -3.73574 6.49784 16.4283 -42.3177 -7.48317 27.3554
RightUpLeg  -95.6926 -10.206 24.6347
RightLeg  82.1759 14.8187 -19.4524
RightFoot  10.8444 5.48353 -25.5531
RightToes  5.82077e-011 -3.18055e-015 -2.98177e-016
Spine  33.871 -2.85278 5.46937
Spine1  9.81713 -3.04468 -5.12499
HEad  -15.391 12.8449 15.8664
LeftShoulder1  -3.88251e-019 9.70628e-020 -3.87848e-018
LeftArm  11.0323 41.9873 -27.5275
LeftForeArm  0.31162 -27.7029 5.52761
LeftHand  -3.53795 -10.8545 25.7499
RightShoulder  2.75659 8.03839 12.6616
RightArm  67.7365 -68.0499 -51.766
RightForeArm  2.80193 30.718 -16.7155
RightHand  -11.2824 9.85313 -73.593
LeftUpLeg  -81.9511 8.83345 4.36603
LeftLeg  90.2461 -13.8402 6.77613
LeftFoot  33.4912 6.65068 -15.1446
LeftToes  5.91571e-011 -3.44359e-011 -3.93244e-011
454
root  -3.83906 6.5078 16.472 -42.1143 -7.20978 27.647
RightUpLeg  -95.8971 -10.1046 24.5133
RightLeg  82.3079 14.86 -19.5841
RightFoot  10.4769 5.50431 -26.0354
RightToes  5.82077e-011 -3.18055e-015 -2.98177e-016
Spine  34.1042 -2.82692 5.28605
Spine1  9.47837 -3.01692 -5.03701
HEad  -15.9024 12.8718 16.2671
LeftShoulder1  -3.88251e-019 9.70628e-020 -3.87848e-018
LeftArm  11.547 42.1312 -27.0381
LeftForeArm  1.56812 -28.6751 6.0899
LeftHand  -3.51427 -10.8885 25.533
RightShoulder  2.75441 8.0675 12.6046
RightArm  69.8829 -68.0596 -53.8542
RightForeArm  2.65664 30.9463 -16.844
RightHand  -11.2764 9.69227 -74.1453
LeftUpLeg  -81.9553 8.84182 4.17359
LeftLeg  90.27 -13.8364 6.66658
LeftFoot  33.3728 6.75881 -15.4362
LeftToes  5.91571e-011 -3.44359e-011 -3.93244e-011
